<svg xmlns="http://www.w3.org/2000/svg" style="display: none;"><symbol id="group" viewBox="0 0 511.999 511.999"><title>group</title><g> <g> <path d="M438.09,273.32h-39.596c4.036,11.05,6.241,22.975,6.241,35.404v149.65c0,5.182-0.902,10.156-2.543,14.782h65.461 c24.453,0,44.346-19.894,44.346-44.346v-81.581C512,306.476,478.844,273.32,438.09,273.32z"/> </g> </g><g> <g> <path d="M107.265,308.725c0-12.43,2.205-24.354,6.241-35.404H73.91c-40.754,0-73.91,33.156-73.91,73.91v81.581 c0,24.452,19.893,44.346,44.346,44.346h65.462c-1.641-4.628-2.543-9.601-2.543-14.783V308.725z"/> </g> </g><g> <g> <path d="M301.261,234.815h-90.522c-40.754,0-73.91,33.156-73.91,73.91v149.65c0,8.163,6.618,14.782,14.782,14.782h208.778 c8.164,0,14.782-6.618,14.782-14.782v-149.65C375.171,267.971,342.015,234.815,301.261,234.815z"/> </g> </g><g> <g> <path d="M256,38.84c-49.012,0-88.886,39.874-88.886,88.887c0,33.245,18.349,62.28,45.447,77.524 c12.853,7.23,27.671,11.362,43.439,11.362c15.768,0,30.586-4.132,43.439-11.362c27.099-15.244,45.447-44.28,45.447-77.524 C344.886,78.715,305.012,38.84,256,38.84z"/> </g> </g><g> <g> <path d="M99.918,121.689c-36.655,0-66.475,29.82-66.475,66.475c0,36.655,29.82,66.475,66.475,66.475 c9.298,0,18.152-1.926,26.195-5.388c13.906-5.987,25.372-16.585,32.467-29.86c4.98-9.317,7.813-19.946,7.813-31.227 C166.393,151.51,136.573,121.689,99.918,121.689z"/> </g> </g><g> <g> <path d="M412.082,121.689c-36.655,0-66.475,29.82-66.475,66.475c0,11.282,2.833,21.911,7.813,31.227 c7.095,13.276,18.561,23.874,32.467,29.86c8.043,3.462,16.897,5.388,26.195,5.388c36.655,0,66.475-29.82,66.475-66.475 C478.557,151.509,448.737,121.689,412.082,121.689z"/> </g> </g></symbol><symbol id="logout" viewBox="0 0 512 512"><title>logout</title><path d="M510.371,226.513c-1.088-2.603-2.645-4.971-4.629-6.955l-63.979-63.979c-8.341-8.32-21.824-8.32-30.165,0 c-8.341,8.341-8.341,21.845,0,30.165l27.584,27.584H320.013c-11.797,0-21.333,9.557-21.333,21.333s9.536,21.333,21.333,21.333 h119.168l-27.584,27.584c-8.341,8.341-8.341,21.845,0,30.165c4.16,4.181,9.621,6.251,15.083,6.251s10.923-2.069,15.083-6.251 l63.979-63.979c1.984-1.963,3.541-4.331,4.629-6.955C512.525,237.606,512.525,231.718,510.371,226.513z"/><path d="M362.68,298.667c-11.797,0-21.333,9.557-21.333,21.333v106.667h-85.333V85.333c0-9.408-6.187-17.728-15.211-20.437 l-74.091-22.229h174.635v106.667c0,11.776,9.536,21.333,21.333,21.333s21.333-9.557,21.333-21.333v-128 C384.013,9.557,374.477,0,362.68,0H21.347c-0.768,0-1.451,0.32-2.197,0.405c-1.003,0.107-1.92,0.277-2.88,0.512 c-2.24,0.576-4.267,1.451-6.165,2.645c-0.469,0.299-1.045,0.32-1.493,0.661C8.44,4.352,8.376,4.587,8.205,4.715 C5.88,6.549,3.939,8.789,2.531,11.456c-0.299,0.576-0.363,1.195-0.597,1.792c-0.683,1.621-1.429,3.2-1.685,4.992 c-0.107,0.64,0.085,1.237,0.064,1.856c-0.021,0.427-0.299,0.811-0.299,1.237V448c0,10.176,7.189,18.923,17.152,20.907 l213.333,42.667c1.387,0.299,2.795,0.427,4.181,0.427c4.885,0,9.685-1.685,13.525-4.843c4.928-4.053,7.808-10.091,7.808-16.491 v-21.333H362.68c11.797,0,21.333-9.557,21.333-21.333V320C384.013,308.224,374.477,298.667,362.68,298.667z"/></symbol><symbol id="paper-plane" viewBox="0 0 24 24"><title>paper-plane</title><path d="m8.75 17.612v4.638c0 .324.208.611.516.713.077.025.156.037.234.037.234 0 .46-.11.604-.306l2.713-3.692z"/><path d="m23.685.139c-.23-.163-.532-.185-.782-.054l-22.5 11.75c-.266.139-.423.423-.401.722.023.3.222.556.505.653l6.255 2.138 13.321-11.39-10.308 12.419 10.483 3.583c.078.026.16.04.242.04.136 0 .271-.037.39-.109.19-.116.319-.311.352-.53l2.75-18.5c.041-.28-.077-.558-.307-.722z"/></symbol><symbol id="link" viewBox="0 0 512.092 512.092"><title>link</title><g> <g> <path d="M312.453,199.601c-6.066-6.102-12.792-11.511-20.053-16.128c-19.232-12.315-41.59-18.859-64.427-18.859 c-31.697-0.059-62.106,12.535-84.48,34.987L34.949,308.23c-22.336,22.379-34.89,52.7-34.91,84.318 c-0.042,65.98,53.41,119.501,119.39,119.543c31.648,0.11,62.029-12.424,84.395-34.816l89.6-89.6 c1.628-1.614,2.537-3.816,2.524-6.108c-0.027-4.713-3.87-8.511-8.583-8.484h-3.413c-18.72,0.066-37.273-3.529-54.613-10.581 c-3.195-1.315-6.867-0.573-9.301,1.877l-64.427,64.512c-20.006,20.006-52.442,20.006-72.448,0 c-20.006-20.006-20.006-52.442,0-72.448l108.971-108.885c19.99-19.965,52.373-19.965,72.363,0 c13.472,12.679,34.486,12.679,47.957,0c5.796-5.801,9.31-13.495,9.899-21.675C322.976,216.108,319.371,206.535,312.453,199.601z"/> </g> </g><g> <g> <path d="M477.061,34.993c-46.657-46.657-122.303-46.657-168.96,0l-89.515,89.429c-2.458,2.47-3.167,6.185-1.792,9.387 c1.359,3.211,4.535,5.272,8.021,5.205h3.157c18.698-0.034,37.221,3.589,54.528,10.667c3.195,1.315,6.867,0.573,9.301-1.877 l64.256-64.171c20.006-20.006,52.442-20.006,72.448,0c20.006,20.006,20.006,52.442,0,72.448l-80.043,79.957l-0.683,0.768 l-27.989,27.819c-19.99,19.965-52.373,19.965-72.363,0c-13.472-12.679-34.486-12.679-47.957,0 c-5.833,5.845-9.35,13.606-9.899,21.845c-0.624,9.775,2.981,19.348,9.899,26.283c9.877,9.919,21.433,18.008,34.133,23.893 c1.792,0.853,3.584,1.536,5.376,2.304c1.792,0.768,3.669,1.365,5.461,2.048c1.792,0.683,3.669,1.28,5.461,1.792l5.035,1.365 c3.413,0.853,6.827,1.536,10.325,2.133c4.214,0.626,8.458,1.025,12.715,1.195h5.973h0.512l5.12-0.597 c1.877-0.085,3.84-0.512,6.059-0.512h2.901l5.888-0.853l2.731-0.512l4.949-1.024h0.939c20.961-5.265,40.101-16.118,55.381-31.403 l108.629-108.629C523.718,157.296,523.718,81.65,477.061,34.993z"/> </g> </g></symbol><symbol id="chatting" viewBox="0 0 512 512"><title>chatting</title><path d="m354.03 31.622h-296.13c-31.93 0-57.9 25.97-57.9 57.9v259.5c0 12.29 13.899 19.218 23.71 12.21l82.47-58.84c6.92-4.93 15.06-7.54 23.56-7.54h181.39c31.93 0 57.9-25.97 57.9-57.9v-190.33c0-8.28-6.72-15-15-15zm-72.86 181.71h-173.31c-8.28 0-15-6.71-15-15 0-8.28 6.72-15 15-15h173.31c8.28 0 15 6.72 15 15 0 8.29-6.72 15-15 15zm0-70h-173.31c-8.28 0-15-6.71-15-15 0-8.28 6.72-15 15-15h173.31c8.28 0 15 6.72 15 15 0 8.29-6.72 15-15 15z"/><path d="m512 205.872v259.49c0 12.207-13.829 19.268-23.71 12.21l-82.47-58.83c-6.92-4.93-15.06-7.54-23.56-7.54h-181.39c-31.93 0-57.9-25.98-57.9-57.91v-28.44h168.16c48.47 0 87.9-39.43 87.9-87.9v-88.99h55.07c31.93 0 57.9 25.98 57.9 57.91z"/></symbol><symbol id="happy" viewBox="0 0 426.667 426.667"><title>happy</title><path d="M138.667,192c17.707,0,32-14.293,32-32s-14.293-32-32-32s-32,14.293-32,32S120.96,192,138.667,192z"/><path d="M288,192c17.707,0,32-14.293,32-32s-14.293-32-32-32s-32,14.293-32,32S270.293,192,288,192z"/><path d="M213.333,298.667c-31.467,0-58.667-17.28-73.493-42.667h-35.733c17.067,43.627,59.52,74.667,109.227,74.667 s92.16-31.04,109.227-74.667h-35.733C272,281.387,244.8,298.667,213.333,298.667z"/><path d="M213.12,0C95.36,0,0,95.573,0,213.333s95.36,213.333,213.12,213.333c117.973,0,213.547-95.573,213.547-213.333 S331.093,0,213.12,0z M213.333,384c-94.293,0-170.667-76.373-170.667-170.667S119.04,42.667,213.333,42.667 S384,119.04,384,213.333S307.627,384,213.333,384z"/></symbol></svg>